# xmcd
#
# Track frame offsets:
#	150
#	12782
#	29331
#	41568
#	58860
#	79298
#	93574
#	106944
#	124353
#	141207
#	155815
#
# Disc length: 2318 seconds
# Revision: 0
# Processed by: cddbd v1.5.2PL0 Copyright (c) Steve Scherf et al.
# Submitted via: dBpowerAMP V12.0
#
DISCID=96090c0b
DTITLE=Weldon Henson - Weldon Henson's Honky Tonk Frontier
DYEAR=2015
DGENRE=Country
TTITLE0=Hey, Bottle Of Whiskey
TTITLE1=Honky Tonk Feels Right
TTITLE2=Heartache Game
TTITLE3=Looking For My Break
TTITLE4=Not A Home
TTITLE5=I Need Wine
TTITLE6=Hey Baby, Can You Help Me (Feat. Brooklyn Henson)
TTITLE7=The Score
TTITLE8=Trying To Pretend
TTITLE9=Just Believe
TTITLE10=That Look
EXTD=
EXTT0=
EXTT1=
EXTT2=
EXTT3=
EXTT4=
EXTT5=
EXTT6=
EXTT7=
EXTT8=
EXTT9=
EXTT10=
PLAYORDER=
